{
  "source": "C:\\Users\\Peter\\Desktop\\stuff\\MIUN\\quantitative_research\\video_compression\\videos\\BVI-HD\\BVI-HD_CDVL_videos\\ORIG\\MartialArts_1920x1080_60fps.mp4",
  "output": "C:\\Users\\Peter\\Desktop\\stuff\\MIUN\\quantitative_research\\video_compression\\compressed_videos\\BVI-HD\\vp9\\2.5\\MartialArts_1920x1080_60fps_vp9.webm",
  "codec": "vp9",
  "ok": "Input #0, mov,mp4,m4a,3gp,3g2,mj2, from 'C:\\Users\\Peter\\Desktop\\stuff\\MIUN\\quantitative_research\\video_compression\\videos\\BVI-HD\\BVI-HD_CDVL_videos\\ORIG\\MartialArts_1920x1080_60fps.mp4':\n  Metadata:\n    major_brand     : isom\n    minor_version   : 512\n    compatible_brands: isomiso2avc1mp41\n    encoder         : Lavf54.28.101\n  Duration: 00:00:05.00, start: 0.000000, bitrate: 120609 kb/s\n  Stream #0:0[0x1](und): Video: h264 (High 4:4:4 Predictive) (avc1 / 0x31637661), yuv420p(progressive), 1920x1080, 120605 kb/s, 60 fps, 60 tbr, 60 tbn (default)\n    Metadata:\n      handler_name    : VideoHandler\n      vendor_id       : [0][0][0][0]\n[out#0/webm @ 0000017bace38f80] Codec AVOption b:a (set bitrate (in bits/s)) has not been used for any stream. The most likely reason is either wrong type (e.g. a video option with no video streams) or that it is a private option of some decoder which was not actually used for any stream.\nStream mapping:\n  Stream #0:0 -> #0:0 (h264 (native) -> vp9 (libvpx-vp9))\nPress [q] to stop, [?] for help\n[libvpx-vp9 @ 0000017bad4105c0] v1.15.2-100-g40561f514\nOutput #0, webm, to 'C:\\Users\\Peter\\Desktop\\stuff\\MIUN\\quantitative_research\\video_compression\\compressed_videos\\BVI-HD\\vp9\\2.5\\MartialArts_1920x1080_60fps_vp9.webm':\n  Metadata:\n    major_brand     : isom\n    minor_version   : 512\n    compatible_brands: isomiso2avc1mp41\n    encoder         : Lavf62.3.100\n  Stream #0:0(und): Video: vp9, yuv420p(tv, progressive), 1920x1080, q=2-31, 2500 kb/s, 60 fps, 1k tbn (default)\n    Metadata:\n      encoder         : Lavc62.11.100 libvpx-vp9\n      handler_name    : VideoHandler\n      vendor_id       : [0][0][0][0]\n    Side data:\n      cpb: bitrate max/min/avg: 0/0/0 buffer size: 2500000 vbv_delay: N/A\nframe=    0 fps=0.0 q=0.0 size=       0KiB time=N/A bitrate=N/A speed=N/A elapsed=0:00:00.51    \nframe=    7 fps=6.1 q=36.0 size=       1KiB time=00:00:00.11 bitrate=  43.4kbits/s speed=0.102x elapsed=0:00:01.13    \nframe=   12 fps=7.0 q=31.0 size=       1KiB time=00:00:00.20 bitrate=  25.3kbits/s speed=0.117x elapsed=0:00:01.70    \nframe=   16 fps=7.0 q=27.0 size=       1KiB time=00:00:00.26 bitrate=  19.0kbits/s speed=0.117x elapsed=0:00:02.28    \nframe=   22 fps=7.8 q=27.0 size=       1KiB time=00:00:00.36 bitrate=  13.8kbits/s speed=0.129x elapsed=0:00:02.83    \nframe=   27 fps=8.0 q=25.0 size=       1KiB time=00:00:00.45 bitrate=  11.3kbits/s speed=0.133x elapsed=0:00:03.37    \nframe=   32 fps=8.2 q=27.0 size=       1KiB time=00:00:00.53 bitrate=   9.5kbits/s speed=0.136x elapsed=0:00:03.91    \nframe=   37 fps=8.3 q=18.0 size=       1KiB time=00:00:00.60 bitrate=   8.4kbits/s speed=0.135x elapsed=0:00:04.45    \nframe=   42 fps=8.4 q=29.0 size=       1KiB time=00:00:00.70 bitrate=   7.2kbits/s speed=0.14x elapsed=0:00:05.00    \nframe=   48 fps=8.7 q=32.0 size=       1KiB time=00:00:00.80 bitrate=   6.3kbits/s speed=0.145x elapsed=0:00:05.51    \nframe=   54 fps=8.9 q=33.0 size=       1KiB time=00:00:00.90 bitrate=   5.6kbits/s speed=0.149x elapsed=0:00:06.03    \nframe=   60 fps=9.1 q=35.0 size=       1KiB time=00:00:01.00 bitrate=   5.1kbits/s speed=0.152x elapsed=0:00:06.55    \nframe=   64 fps=9.0 q=34.0 size=       1KiB time=00:00:01.06 bitrate=   4.7kbits/s speed=0.149x elapsed=0:00:07.13    \nframe=   70 fps=9.1 q=34.0 size=       1KiB time=00:00:01.16 bitrate=   4.3kbits/s speed=0.152x elapsed=0:00:07.66    \nframe=   75 fps=9.2 q=33.0 size=       1KiB time=00:00:01.25 bitrate=   4.1kbits/s speed=0.153x elapsed=0:00:08.18    \nframe=   82 fps=9.4 q=34.0 size=       1KiB time=00:00:01.36 bitrate=   3.7kbits/s speed=0.157x elapsed=0:00:08.69    \nframe=   87 fps=9.4 q=33.0 size=       1KiB time=00:00:01.45 bitrate=   3.5kbits/s speed=0.157x elapsed=0:00:09.20    \nframe=   93 fps=9.5 q=32.0 size=       1KiB time=00:00:01.55 bitrate=   3.3kbits/s speed=0.159x elapsed=0:00:09.74    \nframe=   99 fps=9.6 q=30.0 size=       1KiB time=00:00:01.65 bitrate=   3.1kbits/s speed=0.161x elapsed=0:00:10.26    \nframe=  107 fps=9.9 q=31.0 size=       1KiB time=00:00:01.76 bitrate=   2.9kbits/s speed=0.164x elapsed=0:00:10.79    \nframe=  113 fps= 10 q=30.0 size=       1KiB time=00:00:01.88 bitrate=   2.7kbits/s speed=0.166x elapsed=0:00:11.33    \nframe=  118 fps= 10 q=30.0 size=       1KiB time=00:00:01.96 bitrate=   2.6kbits/s speed=0.166x elapsed=0:00:11.85    \nframe=  125 fps= 10 q=28.0 size=       1KiB time=00:00:02.06 bitrate=   2.5kbits/s speed=0.167x elapsed=0:00:12.37    \nframe=  131 fps= 10 q=27.0 size=     512KiB time=00:00:02.18 bitrate=1921.1kbits/s speed=0.169x elapsed=0:00:12.95    \nframe=  139 fps= 10 q=28.0 size=     512KiB time=00:00:02.31 bitrate=1810.5kbits/s speed=0.172x elapsed=0:00:13.47    \nframe=  146 fps= 10 q=30.0 size=     512KiB time=00:00:02.43 bitrate=1723.7kbits/s speed=0.174x elapsed=0:00:14.02    \nframe=  151 fps= 10 q=31.0 size=     512KiB time=00:00:02.51 bitrate=1666.6kbits/s speed=0.173x elapsed=0:00:14.56    \nframe=  157 fps= 10 q=32.0 size=     512KiB time=00:00:02.61 bitrate=1602.9kbits/s speed=0.173x elapsed=0:00:15.09    \nframe=  163 fps= 10 q=34.0 size=     512KiB time=00:00:02.71 bitrate=1543.9kbits/s speed=0.174x elapsed=0:00:15.65    \nframe=  168 fps= 10 q=36.0 size=     512KiB time=00:00:02.80 bitrate=1498.0kbits/s speed=0.173x elapsed=0:00:16.19    \nframe=  174 fps= 10 q=37.0 size=     512KiB time=00:00:02.90 bitrate=1446.3kbits/s speed=0.173x elapsed=0:00:16.72    \nframe=  179 fps= 10 q=37.0 size=     512KiB time=00:00:02.98 bitrate=1405.9kbits/s speed=0.173x elapsed=0:00:17.26    \nframe=  186 fps= 10 q=38.0 size=     512KiB time=00:00:03.10 bitrate=1353.0kbits/s speed=0.174x elapsed=0:00:17.78    \nframe=  192 fps= 10 q=36.0 size=     512KiB time=00:00:03.20 bitrate=1310.7kbits/s speed=0.175x elapsed=0:00:18.33    \nframe=  199 fps= 11 q=35.0 size=     512KiB time=00:00:03.31 bitrate=1264.6kbits/s speed=0.176x elapsed=0:00:18.84    \nframe=  205 fps= 11 q=35.0 size=     512KiB time=00:00:03.41 bitrate=1227.6kbits/s speed=0.176x elapsed=0:00:19.36    \nframe=  211 fps= 11 q=36.0 size=     512KiB time=00:00:03.51 bitrate=1192.7kbits/s speed=0.177x elapsed=0:00:19.88    \nframe=  218 fps= 11 q=34.0 size=     512KiB time=00:00:03.61 bitrate=1159.7kbits/s speed=0.177x elapsed=0:00:20.40    \nframe=  225 fps= 11 q=34.0 size=     512KiB time=00:00:03.75 bitrate=1118.5kbits/s speed=0.179x elapsed=0:00:20.95    \nframe=  233 fps= 11 q=31.0 size=     512KiB time=00:00:03.88 bitrate=1080.1kbits/s speed=0.181x elapsed=0:00:21.48    \nframe=  239 fps= 11 q=31.0 size=     512KiB time=00:00:03.98 bitrate=1053.0kbits/s speed=0.181x elapsed=0:00:21.99    \nframe=  244 fps= 11 q=33.0 size=     512KiB time=00:00:04.06 bitrate=1031.4kbits/s speed=0.181x elapsed=0:00:22.52    \nframe=  248 fps= 11 q=31.0 size=     512KiB time=00:00:04.13 bitrate=1014.8kbits/s speed=0.179x elapsed=0:00:23.05    \nframe=  254 fps= 11 q=32.0 size=     512KiB time=00:00:04.23 bitrate= 990.8kbits/s speed=0.179x elapsed=0:00:23.62    \nframe=  260 fps= 11 q=34.0 size=    1024KiB time=00:00:04.33 bitrate=1935.8kbits/s speed=0.179x elapsed=0:00:24.15    \nframe=  267 fps= 11 q=33.0 size=    1024KiB time=00:00:04.45 bitrate=1885.1kbits/s speed=0.18x elapsed=0:00:24.66    \nframe=  273 fps= 11 q=32.0 size=    1024KiB time=00:00:04.55 bitrate=1843.7kbits/s speed=0.181x elapsed=0:00:25.19    \nframe=  276 fps= 11 q=33.0 size=    1024KiB time=00:00:04.60 bitrate=1823.6kbits/s speed=0.179x elapsed=0:00:25.73    \nframe=  276 fps= 11 q=33.0 size=    1024KiB time=00:00:04.60 bitrate=1823.6kbits/s speed=0.175x elapsed=0:00:26.26    \nframe=  276 fps= 10 q=33.0 size=    1024KiB time=00:00:04.60 bitrate=1823.6kbits/s speed=0.171x elapsed=0:00:26.83    \nframe=  276 fps= 10 q=33.0 size=    1024KiB time=00:00:04.60 bitrate=1823.6kbits/s speed=0.168x elapsed=0:00:27.41    \nframe=  276 fps=9.9 q=33.0 size=    1024KiB time=00:00:04.60 bitrate=1823.6kbits/s speed=0.164x elapsed=0:00:27.97    \n[out#0/webm @ 0000017bace38f80] video:1441KiB audio:0KiB subtitle:0KiB other streams:0KiB global headers:0KiB muxing overhead: 0.192548%\nframe=  300 fps= 11 q=36.0 Lsize=    1444KiB time=00:00:05.00 bitrate=2366.1kbits/s speed=0.178x elapsed=0:00:28.01    \n",
  "seconds": 28.283658266067505,
  "probe_out": {}
}